<svg version="1.1" viewBox="0.0 0.0 264.56692913385825 264.56692913385825" fill="none" stroke="none" stroke-linecap="square" stroke-miterlimit="10" xmlns:xlink="http://www.w3.org/1999/xlink" xmlns="http://www.w3.org/2000/svg"><clipPath id="g12561ed1d14_0_3.0"><path d="m0 0l264.56693 0l0 264.56693l-264.56693 0l0 -264.56693z" clip-rule="nonzero"/></clipPath><g clip-path="url(#g12561ed1d14_0_3.0)"><path fill="#000000" fill-opacity="0.0" d="m0 0l264.56693 0l0 264.56693l-264.56693 0z" fill-rule="evenodd"/><path fill="#ffffff" d="m13.439351 102.71257l0 0c19.434307 -16.431725 61.63924 -16.512825 94.267365 -0.18114471q29.539223 14.785568 59.078438 29.571129q-17.594452 14.876144 -35.18892 29.752274l0 0c-19.434303 16.431732 -61.639244 16.512833 -94.267365 0.18113708l0 0c-32.628124 -16.33168 -43.323826 -42.89167 -23.889523 -59.323395z" fill-rule="evenodd"/><path fill="#ffffff" d="m241.99422 173.82538c-34.512085 -0.47009277 -67.05797 -10.697876 -82.87549 -26.04422c-15.81752 -15.346359 -11.896454 -32.89074 9.984665 -44.67536c21.881134 -11.784615 57.55815 -15.566765 90.84866 -9.630936z" fill-rule="evenodd"/></g></svg>